<svg xmlns="http://www.w3.org/2000/svg" xmlns:xlink="http://www.w3.org/1999/xlink" width="139.751" height="203.021" viewBox="0 0 139.751 203.021">
  <defs>
    <clipPath id="clip-path">
      <rect id="Rectangle_22" data-name="Rectangle 22" width="139.751" height="203.021" fill="#f4f4f4"/>
    </clipPath>
  </defs>
  <g id="img-watermark" clip-path="url(#clip-path)">
    <path id="Path_31" data-name="Path 31" d="M72.153,0C62.5,12.2,54.744,24,52.236,38.339a64.535,64.535,0,0,0-.567,14.85A9.962,9.962,0,0,0,59.32,62.3c7.288,1.992,14.752,3.39,22.2,4.746C101.331,70.655,121.173,74.1,141,77.64c.422.075.8.419.024-.007-11.705-.347-24.582-1.336-37.417-.957-16.152.478-31.678,3.983-45.495,13.171C54.12,92.5,53.14,95.1,54.862,99.866c9.9,27.381,25.252,51.622,42.394,74.842,6.552,8.874,13.548,17.418,20.015,26.61-7.435-5.81-15-11.462-22.28-17.461-17.8-14.664-35.3-29.83-48.231-49.111C29.6,109.172,23.049,81.114,31.858,50.858,37.37,31.929,50.336,18.009,65,5.566,66.972,3.893,69.079,2.383,72.153,0" transform="translate(-1.722)" fill="#d015a5"/>
    <path id="Path_32" data-name="Path 32" d="M0,210.277c18.027-28,24.265-58.993,25.686-92.513,3.956,12.112,9.319,22.137,16.849,30.98a4.544,4.544,0,0,1,.57,3.713C37.411,170.109,14.89,200.322,0,210.277" transform="translate(0 -7.256)" fill="#d015a5"/>
    <path id="Path_33" data-name="Path 33" d="M76.2,60.97c-8.353,0-14.368-6.034-14.34-14.372.028-8.274,6.163-14.291,14.487-14.206A14.578,14.578,0,0,1,90.765,46.525c.149,7.8-6.56,14.45-14.568,14.445" transform="translate(-3.811 -1.996)" fill="#d015a5"/>
  </g>
</svg>
