<svg xmlns="http://www.w3.org/2000/svg" xmlns:xlink="http://www.w3.org/1999/xlink" width="475.284" height="690.463" viewBox="0 0 475.284 690.463">
  <defs>
    <clipPath id="clip-path">
      <rect id="Rectangle_22" data-name="Rectangle 22" width="475.284" height="690.463" fill="#f4f4f4"/>
    </clipPath>
  </defs>
  <g id="img-watermark-bw" clip-path="url(#clip-path)">
    <path id="Path_31" data-name="Path 31" d="M178.282,0c-32.843,41.5-59.207,81.636-67.734,130.387-2.882,16.471-2.93,33.739-1.928,50.5.935,15.673,11.588,27.044,26.019,30.988,24.784,6.775,50.172,11.53,75.486,16.142,67.389,12.271,134.871,24,202.305,36.028,1.436.255,2.709,1.427.083-.022-39.809-1.181-83.6-4.545-127.253-3.255-54.933,1.624-107.735,13.544-154.725,44.794-13.583,9.035-16.914,17.878-11.058,34.071,33.675,93.121,85.88,175.565,144.18,254.532,22.282,30.181,46.077,59.239,68.069,90.5-25.285-19.758-51.011-38.983-75.773-59.382C195.414,575.413,135.917,523.834,91.923,458.261c-58.355-86.975-80.64-182.4-50.679-285.3C59.99,108.587,104.086,61.249,153.961,18.928c6.7-5.687,13.87-10.822,24.322-18.928" transform="translate(61.247)" fill="#f4f4f4"/>
    <path id="Path_32" data-name="Path 32" d="M0,432.4c61.31-95.212,82.523-200.63,87.358-314.632,13.455,41.191,31.694,75.288,57.3,105.36,2.394,2.812,3.134,8.923,1.937,12.628C127.231,295.786,50.641,398.539,0,432.4" transform="translate(0 258.066)" fill="#f4f4f4"/>
    <path id="Path_33" data-name="Path 33" d="M110.627,129.588c-28.407-.016-48.863-20.521-48.771-48.879.1-28.138,20.961-48.6,49.269-48.314,26.594.271,48.544,21.781,49.048,48.065.507,26.517-22.311,49.144-49.546,49.128" transform="translate(135.55 70.981)" fill="#f4f4f4"/>
  </g>
</svg>
